HIERARCHY
ROOT Hips
{
	OFFSET 0.000000 0.000000 0.000000
	CHANNELS 6 Xposition Yposition Zposition Zrotation Yrotation Xrotation 
	JOINT LeftUpLeg_virtual
	{
		OFFSET 0.000000 0.000000 0.000000
		CHANNELS 3 Zrotation Yrotation Xrotation
		JOINT LeftUpLeg
		{
			OFFSET 8.479694 -4.795517 -0.379053
			CHANNELS 3 Zrotation Yrotation Xrotation
			JOINT LeftLeg
			{
				OFFSET 0.485052 -32.551468 0.112863
				CHANNELS 3 Zrotation Yrotation Xrotation
				JOINT LeftFoot
				{
					OFFSET 0.438033 -32.635670 -3.012641
					CHANNELS 3 Zrotation Yrotation Xrotation
					JOINT LeftToeBase
					{
						OFFSET 0.970169 -13.225353 11.864223
						CHANNELS 3 Zrotation Yrotation Xrotation
						End Site
						{
							OFFSET 0.000000 0.000000 0.000000
						}
					}
				}
			}
		}
	}
	JOINT RightUpLeg_virtual
	{
		OFFSET 0.000000 0.000000 0.000000
		CHANNELS 3 Zrotation Yrotation Xrotation
		JOINT RightUpLeg
		{
			OFFSET -8.479694 -4.795517 -0.379053
			CHANNELS 3 Zrotation Yrotation Xrotation
			JOINT RightLeg
			{
				OFFSET -0.484100 -32.551483 0.112903
				CHANNELS 3 Zrotation Yrotation Xrotation
				JOINT RightFoot
				{
					OFFSET -0.438985 -32.635651 -3.012681
					CHANNELS 3 Zrotation Yrotation Xrotation
					JOINT RightToeBase
					{
						OFFSET -0.970169 -13.225354 11.864223
						CHANNELS 3 Zrotation Yrotation Xrotation
						End Site
						{
							OFFSET 0.000000 0.000000 0.000000
						}
					}
				}
			}
		}
	}
	JOINT Spine_virtual
	{
		OFFSET 0.000000 0.000000 0.000000
		CHANNELS 3 Zrotation Yrotation Xrotation
		JOINT Spine
		{
			OFFSET 0.000000 7.722015 1.166203
			CHANNELS 3 Zrotation Yrotation Xrotation
			JOINT Spine1
			{
				OFFSET 0.000000 12.024086 0.248766
				CHANNELS 3 Zrotation Yrotation Xrotation
				JOINT Spine2
				{
					OFFSET -0.000000 11.503036 -0.491240
					CHANNELS 3 Zrotation Yrotation Xrotation
					JOINT Neck_virtual
					{
						OFFSET 0.000000 0.000000 0.000000
						CHANNELS 3 Zrotation Yrotation Xrotation
						JOINT Neck
						{
							OFFSET 0.000000 18.430687 -3.123054
							CHANNELS 3 Zrotation Yrotation Xrotation
							JOINT Head
							{
								OFFSET -0.000000 9.051071 1.034021
								CHANNELS 3 Zrotation Yrotation Xrotation
								End Site
								{
									OFFSET 0.000000 0.000000 0.000000
								}
							}
						}
					}
					JOINT LeftShoulder_virtual
					{
						OFFSET 0.000000 0.000000 0.000000
						CHANNELS 3 Zrotation Yrotation Xrotation
						JOINT LeftShoulder
						{
							OFFSET 6.197824 13.665230 -4.064723
							CHANNELS 3 Zrotation Yrotation Xrotation
							JOINT LeftArm
							{
								OFFSET 7.778132 -0.187073 -1.709282
								CHANNELS 3 Zrotation Yrotation Xrotation
								JOINT LeftForeArm
								{
									OFFSET 21.954697 0.000000 -2.041093
									CHANNELS 3 Zrotation Yrotation Xrotation
									JOINT LeftHand
									{
										OFFSET 22.992908 0.000000 -0.870901
										CHANNELS 3 Zrotation Yrotation Xrotation
										End Site
										{
											OFFSET 0.000000 0.000000 0.000000
										}
									}
								}
							}
						}
					}
					JOINT RightShoulder_virtual
					{
						OFFSET 0.000000 0.000000 0.000000
						CHANNELS 3 Zrotation Yrotation Xrotation
						JOINT RightShoulder
						{
							OFFSET -6.197824 13.665230 -4.064723
							CHANNELS 3 Zrotation Yrotation Xrotation
							JOINT RightArm
							{
								OFFSET -7.778132 -0.187073 -1.709282
								CHANNELS 3 Zrotation Yrotation Xrotation
								JOINT RightForeArm
								{
									OFFSET -21.954697 0.000000 -2.041093
									CHANNELS 3 Zrotation Yrotation Xrotation
									JOINT RightHand
									{
										OFFSET -22.992908 0.000000 -0.870901
										CHANNELS 3 Zrotation Yrotation Xrotation
										End Site
										{
											OFFSET 0.000000 0.000000 0.000000
										}
									}
								}
							}
						}
					}
				}
			}
		}
	}
}
MOTION
Frames: 11
Frame Time: 0.033333
-6.406019 81.978539 56.687664 179.874534 1.539998 -179.889561 -6.106783 0.356483 10.673147 3.632126 -1.395780 -22.745640 9.809710 7.487221 30.029545 -1.457267 -4.588955 -9.847479 0.000000 0.000000 0.000000 -1.798977 -0.290379 9.910320 -2.936282 -1.066841 -17.359330 -1.626858 2.478218 24.915729 5.487592 6.712452 -6.238428 0.000000 0.000000 0.000000 1.331405 2.597202 -2.327174 -4.356670 2.841643 -0.690845 -0.590031 -2.838835 3.622162 -0.016165 -0.006869 0.003600 -1.105076 -1.450971 4.764861 1.502934 -4.176701 -18.212930 0.000000 0.000000 0.000000 0.505374 -0.675539 2.209795 12.756224 5.219296 -2.931555 2.788058 1.257889 -51.660617 -2.693805 -29.762665 -4.854131 0.000000 0.000000 0.000000 -3.635411 0.519201 1.649871 7.655325 -17.013303 -5.648170 5.417035 -7.472099 -44.123398 -0.266962 33.769155 -5.011783 0.000000 0.000000 0.000000 
-6.411941 81.980232 56.704906 179.990812 1.548406 -179.986481 -6.001282 0.372200 10.735619 3.699274 -1.596237 -22.700226 9.803866 7.378950 30.306181 -1.690327 -4.885440 -9.947175 0.000000 0.000000 0.000000 -1.789149 -0.260837 9.923489 -2.775564 -1.079264 -17.308123 -1.549332 2.095242 24.932521 5.325409 6.514725 -6.366173 0.000000 0.000000 0.000000 1.404401 2.550193 -2.266414 -4.310198 2.809778 -0.635552 -0.548075 -2.864350 3.649046 0.007882 -0.029974 0.021308 -1.162782 -1.516434 4.686767 1.489236 -4.189657 -18.210587 0.000000 0.000000 0.000000 0.456034 -0.602802 2.119692 12.755554 5.295131 -3.098445 2.782785 1.212170 -51.707530 -2.835428 -29.718915 -4.697601 0.000000 0.000000 0.000000 -3.663065 0.558336 1.588322 7.652033 -16.950363 -5.726878 5.429250 -7.437463 -44.098218 -0.260092 33.740387 -4.979840 0.000000 0.000000 0.000000 
-6.420028 81.980453 56.723938 179.981523 1.597100 -179.891378 -5.930094 0.376274 10.671130 3.563786 -1.481463 -22.728933 9.822753 7.334763 30.278608 -1.655735 -4.838985 -9.914906 0.000000 0.000000 0.000000 -1.797211 -0.258379 9.841584 -2.788441 -1.120237 -17.380361 -1.554415 2.175454 24.941242 5.331650 6.533286 -6.371336 0.000000 0.000000 0.000000 1.418645 2.582252 -2.325013 -4.307416 2.855774 -0.689912 -0.538775 -2.822264 3.662010 0.010914 0.016117 0.075802 -1.133616 -1.522857 4.633929 1.507553 -4.188717 -18.217463 0.000000 0.000000 0.000000 0.470180 -0.632935 2.122332 12.721466 5.277142 -3.059334 2.847763 1.124547 -51.610685 -2.710713 -29.688257 -4.775361 0.000000 0.000000 0.000000 -3.697115 0.523128 1.507569 7.629950 -16.961183 -5.666742 5.445167 -7.487384 -44.111797 -0.311851 33.716437 -5.035660 0.000000 0.000000 0.000000 
-6.428446 81.981903 56.751118 179.978176 1.588906 -179.988476 -6.023523 0.459251 10.688437 3.723351 -1.683736 -22.715090 9.677430 7.285316 30.285568 -1.564910 -4.723745 -9.943959 0.000000 0.000000 0.000000 -1.792578 -0.260079 9.889881 -2.786687 -1.073570 -17.312906 -1.551101 2.142104 24.983555 5.330709 6.524178 -6.326257 0.000000 0.000000 0.000000 1.428002 2.554531 -2.232715 -4.296598 2.849473 -0.641497 -0.524434 -2.831417 3.637178 0.011987 0.006515 -0.001816 -1.126374 -1.526859 4.686048 1.521165 -4.156025 -18.168633 0.000000 0.000000 0.000000 0.495551 -0.671694 2.097596 12.702604 5.292936 -3.080443 2.791640 1.166788 -51.515247 -2.774528 -29.637359 -4.711464 0.000000 0.000000 0.000000 -3.674104 0.552815 1.571670 7.611796 -16.896148 -5.615763 5.485444 -7.456633 -44.174218 -0.336014 33.699313 -5.118181 0.000000 0.000000 0.000000 
-6.434285 81.982620 56.778610 179.983858 1.450284 -179.994677 -6.008315 0.361478 10.677219 3.702911 -1.712634 -22.712954 9.696720 7.294109 30.307837 -1.570704 -4.725495 -9.917479 0.000000 0.000000 0.000000 -1.798857 -0.341827 9.890135 -2.807575 -1.062889 -17.320684 -1.551139 2.125569 25.008429 5.295276 6.492630 -6.313076 0.000000 0.000000 0.000000 1.438695 2.521529 -2.203952 -4.291382 2.839181 -0.650527 -0.508666 -2.853091 3.634383 0.018964 -0.011039 0.006496 -1.123784 -1.535161 4.661424 1.526140 -4.152437 -18.117731 0.000000 0.000000 0.000000 0.488912 -0.676277 2.115661 12.665246 5.304627 -3.067470 2.753732 1.107830 -51.468966 -2.724021 -29.565509 -4.696302 0.000000 0.000000 0.000000 -3.648557 0.508088 1.530675 7.605886 -16.827856 -5.718394 5.522236 -7.483044 -44.048822 -0.320637 33.716361 -5.057721 0.000000 0.000000 0.000000 
-6.440250 81.987946 56.806808 179.968900 1.525295 -179.983435 -6.011901 0.403652 10.670314 3.688595 -1.702189 -22.745875 9.668697 7.275749 30.263195 -1.550894 -4.690897 -9.889200 0.000000 0.000000 0.000000 -1.736946 -0.332740 9.843805 -2.854963 -1.121988 -17.391309 -1.550494 2.168448 25.045563 5.341610 6.580076 -6.327987 0.000000 0.000000 0.000000 1.454747 2.525266 -2.142942 -4.289443 2.884293 -0.651994 -0.543543 -2.812536 3.623661 -0.027136 0.031390 -0.013729 -1.056993 -1.495577 4.690717 1.558903 -4.106556 -18.043980 0.000000 0.000000 0.000000 0.522360 -0.622526 2.171347 12.697408 5.350910 -3.088549 2.682255 1.050916 -51.543879 -2.775963 -29.527102 -4.675705 0.000000 0.000000 0.000000 -3.611185 0.546341 1.538077 7.689167 -16.778624 -5.601699 5.477915 -7.497709 -44.016065 -0.401249 33.722355 -5.172772 0.000000 0.000000 0.000000 
-6.442113 81.995537 56.836277 179.936088 1.498715 -179.914436 -6.006835 0.244253 10.637301 3.635862 -1.579846 -22.789261 9.663234 7.327349 30.258633 -1.542062 -4.656377 -9.860648 0.000000 0.000000 0.000000 -1.734787 -0.434106 9.813512 -2.897490 -1.156396 -17.456719 -1.562214 2.253694 25.103973 5.323534 6.593405 -6.300190 0.000000 0.000000 0.000000 1.440468 2.456096 -2.128847 -4.332081 2.895141 -0.706690 -0.500964 -2.826771 3.595669 -0.014120 0.014489 0.008012 -1.024198 -1.504551 4.661221 1.577279 -4.110014 -17.951795 0.000000 0.000000 0.000000 0.599565 -0.702241 2.107916 12.537265 5.331671 -3.012390 2.741531 1.208756 -51.493643 -2.781979 -29.503084 -4.601334 0.000000 0.000000 0.000000 -3.557940 0.521828 1.538893 7.693809 -16.706130 -5.615800 5.572496 -7.462773 -44.073213 -0.437983 33.799598 -5.195220 0.000000 0.000000 0.000000 
-6.448016 81.996986 56.865433 179.936580 1.459686 -179.995565 -5.899355 0.232098 10.704716 3.558562 -1.678406 -22.773715 9.682518 7.346025 30.175960 -1.646187 -4.753848 -9.766895 0.000000 0.000000 0.000000 -1.716101 -0.482906 9.849815 -2.938149 -1.148454 -17.473984 -1.569691 2.253909 25.106835 5.330141 6.626821 -6.296103 0.000000 0.000000 0.000000 1.458713 2.360951 -2.016625 -4.347905 2.888583 -0.646975 -0.462686 -2.840212 3.627064 0.035288 -0.005661 0.016062 -1.038435 -1.519285 4.608178 1.610845 -4.033317 -17.851463 0.000000 0.000000 0.000000 0.588141 -0.645720 2.030352 12.478269 5.371322 -2.998677 2.727759 1.279399 -51.381696 -2.825195 -29.520088 -4.520728 0.000000 0.000000 0.000000 -3.593039 0.560734 1.515408 7.685603 -16.594604 -5.784196 5.597517 -7.495665 -43.967379 -0.429737 33.896962 -5.155726 0.000000 0.000000 0.000000 
-6.455980 82.002312 56.886971 179.886146 1.440819 -179.983817 -5.977891 0.145379 10.715999 3.546585 -1.526780 -22.795545 9.692424 7.461898 30.205791 -1.716105 -4.799180 -9.759712 0.000000 0.000000 0.000000 -1.724272 -0.519079 9.849686 -2.975405 -1.178128 -17.514960 -1.582933 2.287366 25.139541 5.324654 6.652643 -6.268997 0.000000 0.000000 0.000000 1.461344 2.321152 -1.953020 -4.403872 2.921421 -0.656372 -0.461736 -2.812940 3.623497 0.011267 0.016447 0.003366 -0.973435 -1.478765 4.602453 1.637871 -4.049744 -17.728646 0.000000 0.000000 0.000000 0.637928 -0.658017 2.043294 12.485414 5.360350 -3.021255 2.670064 1.301970 -51.348648 -2.753343 -29.528322 -4.462780 0.000000 0.000000 0.000000 -3.507106 0.484627 1.466345 7.747874 -16.581433 -5.876559 5.715975 -7.564451 -43.901440 -0.554618 34.032606 -5.216639 0.000000 0.000000 0.000000 
-6.457182 82.003197 56.903019 179.880299 1.417235 -179.985388 -5.941285 0.083915 10.729895 3.536241 -1.450053 -22.808100 9.672622 7.537966 30.204121 -1.757264 -4.807647 -9.749084 0.000000 0.000000 0.000000 -1.700874 -0.579310 9.853568 -2.993773 -1.190975 -17.538532 -1.583046 2.349026 25.156418 5.304270 6.670966 -6.279795 0.000000 0.000000 0.000000 1.480071 2.256876 -1.858871 -4.439819 2.911848 -0.650671 -0.439311 -2.808373 3.619252 -0.002877 0.006458 -0.006058 -0.925731 -1.456049 4.578912 1.662776 -4.020052 -17.626022 0.000000 0.000000 0.000000 0.687500 -0.608609 2.022546 12.427078 5.272572 -2.985577 2.673217 1.445034 -51.201649 -2.738498 -29.544632 -4.366397 0.000000 0.000000 0.000000 -3.483676 0.554405 1.442466 7.885979 -16.447487 -5.994157 5.703948 -7.800802 -44.110489 -0.393902 34.204037 -4.989413 0.000000 0.000000 0.000000 
-6.457008 82.000969 56.913853 179.979883 1.380084 -179.993708 -5.888731 0.073852 10.725603 3.679241 -1.435379 -22.836099 9.694359 7.770259 30.287111 -1.829293 -4.866762 -9.784313 0.000000 0.000000 0.000000 -1.667792 -0.590589 9.836207 -2.978768 -1.036906 -17.526177 -1.569616 2.335678 25.126418 5.232913 6.624539 -6.271085 0.000000 0.000000 0.000000 1.533895 2.205786 -1.774331 -4.435214 2.913096 -0.634383 -0.387934 -2.788268 3.624171 0.015675 -0.001053 -0.000933 -0.934469 -1.472831 4.570914 1.684397 -4.000041 -17.471465 0.000000 0.000000 0.000000 0.687265 -0.643611 1.957327 12.376638 5.198924 -3.066531 2.658540 1.585278 -51.027186 -2.756931 -29.540817 -4.183129 0.000000 0.000000 0.000000 -3.497555 0.592070 1.397277 7.905310 -16.337244 -5.966719 5.849158 -8.017802 -44.290693 -0.495356 34.416736 -5.034245 0.000000 0.000000 0.000000 
